
        <svg xmlns="http://www.w3.org/2000/svg" xmlns:xlink="http://www.w3.org/1999/xlink" version="1.1" width="3250" height="1237.5" viewBox="0 0 3250 1237.5">
			
			<g transform="scale(12.5) translate(10, 10)">
				<defs id="SvgjsDefs1021"/><g id="SvgjsG1022" featureKey="rootContainer" transform="matrix(1,0,0,1,0,0)" fill="#fff"><rect xmlns="http://www.w3.org/2000/svg" width="240" height="79" rx="10" ry="10"/></g><g id="SvgjsG1023" featureKey="nameFeature-0" transform="matrix(1.3885041408191001,0,0,1.3885041408191001,18.33379463376286,3.6712545468393962)" fill="#000000"><path d="M25.2 39.76 l0 0.23996 l-12 0 l0 -0.24 l3.84 0 l-5.32 -12.4 c-0.85332 0.77332 -1.6666 1.5733 -2.44 2.4 s-1.4533 1.7334 -2.04 2.72 s-1.0534 2.0734 -1.4 3.26 s-0.52 2.5267 -0.52 4.02 l3.88 0 l0 0.24 l-8 0 l0 -0.24 l3.88 0 c0.02668 -1.52 0.22 -2.8867 0.58 -4.1 s0.84 -2.32 1.44 -3.32 s1.2867 -1.9267 2.06 -2.78 s1.5866 -1.6666 2.44 -2.44 l-6.48 -15.12 l-3.92 0 l0 -0.24 l12 0 l0 0.24 l-3.84 0 l5.32 12.4 c0.85332 -0.74668 1.6666 -1.54 2.44 -2.38 s1.4533 -1.7533 2.04 -2.74 s1.0534 -2.0734 1.4 -3.26 s0.52 -2.5267 0.52 -4.02 l-3.88 0 l0 -0.24 l8 0 l0 0.24 l-3.88 0 c-0.02668 1.52 -0.22 2.8867 -0.58 4.1 s-0.84 2.3266 -1.44 3.34 s-1.2867 1.94 -2.06 2.78 s-1.5866 1.6467 -2.44 2.42 l6.48 15.12 l3.92 0 z M39 39.76 l0 0.24 l-12 0 l0 -0.24 l3.88 0 l0 -15.76 l-3.88 0 l0 -0.24 l8.12 0 l0 16 l3.88 0 z M33 20 c-0.58668 0 -1.0867 -0.20668 -1.5 -0.62 s-0.62 -0.91332 -0.62 -1.5 s0.20668 -1.0867 0.62 -1.5 s0.91332 -0.62 1.5 -0.62 s1.0867 0.20668 1.5 0.62 s0.62 0.91332 0.62 1.5 s-0.20668 1.0867 -0.62 1.5 s-0.91332 0.62 -1.5 0.62 z M64.2 39.76 l0.000039062 0.23996 l-12 0 l0 -0.24 l3.88 0 l0 -15.76 c-0.66668 0 -1.36 0.12 -2.08 0.36 s-1.42 0.54668 -2.1 0.92 s-1.3267 0.79332 -1.94 1.26 s-1.16 0.92668 -1.64 1.38 l0 12.08 l-8.12 0 l0 -0.24 l3.88 0 l0 -15.76 l-3.88 0 l0 -0.24 l8.12 0 l0 3.88 c0.50668 -0.48 1.0667 -0.94668 1.68 -1.4 s1.2666 -0.86664 1.96 -1.24 s1.4 -0.67332 2.12 -0.9 s1.4267 -0.34 2.12 -0.34 l0.64 0.08 l1.42 0.46 l1.42 1.22 l0.64 2.36 l0 11.88 l3.88 0 z M78.32 30.96 c0.08 0.64 0.2666 1.46 0.55992 2.46 s0.79332 1.9733 1.5 2.92 s1.68 1.7534 2.92 2.42 s2.8467 1 4.82 1 c0.8 0 1.56 -0.15332 2.28 -0.46 s1.3467 -0.72668 1.88 -1.26 s0.95332 -1.16 1.26 -1.88 s0.46 -1.48 0.46 -2.28 l0 -8 c0 -0.74668 -0.08668 -1.4 -0.26 -1.96 s-0.4 -1.0467 -0.68 -1.46 s-0.59332 -0.76 -0.94 -1.04 s-0.70668 -0.51332 -1.08 -0.7 c-0.88 -0.42668 -1.8533 -0.66668 -2.92 -0.72 c-0.77332 -0.02668 -1.4666 -0.18668 -2.08 -0.48 c-0.53332 -0.26668 -1.0066 -0.68 -1.42 -1.24 s-0.62 -1.36 -0.62 -2.4 s0.20668 -1.8333 0.62 -2.38 s0.87332 -0.95336 1.38 -1.22 s0.97336 -0.42 1.4 -0.46 s0.66668 -0.06 0.72 -0.06 c0.02668 0 0.26 0.02 0.7 0.06 s0.91332 0.18668 1.42 0.44 s0.96668 0.66 1.38 1.22 s0.62 1.36 0.62 2.4 c0 0.58668 -0.20668 1.0867 -0.62 1.5 s-0.91332 0.62 -1.5 0.62 s-1.0867 -0.20668 -1.5 -0.62 s-0.62 -0.91332 -0.62 -1.5 s0.20668 -1.0867 0.62 -1.5 s0.91332 -0.62 1.5 -0.62 c0.74668 0 1.32 0.30668 1.72 0.92 c-0.18668 -0.66668 -0.48 -1.1867 -0.88 -1.56 s-0.81332 -0.64 -1.24 -0.8 c-0.48 -0.18668 -1.0133 -0.29336 -1.6 -0.32004 l-0.62 0.06 l-1.34 0.42 l-1.32 1.16 l-0.6 2.24 c0 0.98668 0.2 1.74 0.6 2.26 s0.84 0.9 1.32 1.14 c0.56 0.29332 1.2133 0.45332 1.96 0.48 c1.3867 0 2.6934 0.26668 3.92 0.8 s2.3 1.2533 3.22 2.16 s1.6467 1.98 2.18 3.22 s0.8 2.5533 0.8 3.94 c0 1.4133 -0.26668 2.7333 -0.8 3.96 s-1.26 2.2934 -2.18 3.2 s-1.9933 1.6267 -3.22 2.16 s-2.5334 0.8 -3.92 0.8 c-1.68 0 -3.0933 -0.24668 -4.24 -0.74 s-2.0934 -1.1066 -2.84 -1.84 s-1.3267 -1.54 -1.74 -2.42 s-0.71332 -1.6933 -0.9 -2.44 s-0.3 -1.3734 -0.34 -1.88 s-0.06 -0.77336 -0.06 -0.80004 c0 -0.58668 0.20668 -1.0867 0.62 -1.5 s0.91332 -0.62 1.5 -0.62 s1.0867 0.20668 1.5 0.62 s0.62 0.91332 0.62 1.5 s-0.20668 1.0867 -0.62 1.5 s-0.91332 0.62 -1.5 0.62 c-0.8 0 -1.4 -0.34668 -1.8 -1.04 z M124.03999999999999 39.76 l0.000039062 0.24004 l-12 0 l0 -0.24 l3.88 0 l0 -15.76 c-0.66668 0 -1.36 0.12 -2.08 0.36 s-1.42 0.54668 -2.1 0.92 s-1.3267 0.79332 -1.94 1.26 s-1.16 0.92668 -1.64 1.38 l0 12.08 l-8.12 0 l0 -0.24 l3.88 0 l0 -27.76 l-3.88 0 l0 -0.24 l8.12 0 l0 15.88 c0.53332 -0.50668 1.12 -0.99336 1.76 -1.46 s1.3 -0.88 1.98 -1.24 s1.3667 -0.64668 2.06 -0.86 s1.3866 -0.32 2.08 -0.32 c1.2 0 2.1867 0.38668 2.96 1.16 s1.16 1.76 1.16 2.96 l0 11.88 l3.88 0 z M137.24 23.76 l7.9999 0 l0 0.24 l-3.88 0 l0 10.56 c0 0.69332 -0.08668 1.2933 -0.26 1.8 s-0.40664 0.95336 -0.69996 1.34 s-0.62664 0.71336 -0.99996 0.98004 s-0.74664 0.48 -1.12 0.64 c-0.37332 0.18668 -0.74 0.32 -1.1 0.4 s-0.68668 0.14668 -0.98 0.2 c-0.32 0.05332 -0.64 0.08 -0.96 0.08 c-0.77332 0 -1.52 -0.12668 -2.24 -0.38 s-1.3733 -0.62 -1.96 -1.1 s-1.0534 -1.0533 -1.4 -1.72 s-0.52 -1.4134 -0.52 -2.24 l0 -10.56 l-3.88 0 l0 -0.24 l8.12 0 l0 14.32 c0 0.4 0.06668 0.70668 0.2 0.92 s0.3 0.38 0.5 0.5 s0.40668 0.19332 0.62 0.22 s0.4 0.04 0.56 0.04 c0.29332 0 0.6 -0.02668 0.92 -0.08 c0.29332 -0.05332 0.61332 -0.12 0.96 -0.2 s0.70668 -0.2 1.08 -0.36 c0.74668 -0.32 1.42 -0.83332 2.02 -1.54 s0.9 -1.7134 0.9 -3.02 l0 -10.56 l-3.88 0 l0 -0.24 z"/></g>
			</g>
		</svg>
	